# xmcd
# 
# Track frame offsets:
#     150
#     10336
#     20205
#     32263
#     40597
#     50969
#     61904
#     72145
#     81595
#     90104
#     99827
#     107766
#     118599
#     128370
#     138910
#     147310
# 
# Disc length: 2125
# 
# Revision: 5
# Processed by: cddbd v1.5.2PL0 Copyright (c) Steve Scherf et al.
# Submitted via: BonkEnc v1.0
# 
DISCID=cb084b10
DTITLE=Johnny Cash - The Great Johnny Cash [CD 3/3)
DYEAR=1999
DGENRE=Country
TTITLE0=Get Rhythm
TTITLE1=Rock Island Line  (Huddie Ledbetter)
TTITLE2=You're The Nearest Thing To Heaven  (Johnny Cash - H.Johnson)
TTITLE3=Always Alone
TTITLE4=You Win Again  (Hank Williams)
TTITLE5=Fool's Hall Of Fame  (Danny Wolfe)
TTITLE6=The Ways Of A Woman In Love  (Charlie Rich - Bill Justis)
TTITLE7=Down The Street To 301  (Jack Clements)
TTITLE8=I Forgot To Remember To Forget  (Stan Keesler)
TTITLE9=Ballad Of A Teenage Queen
TTITLE10=Sugartime  (Philips - Achols)
TTITLE11=I Heard That Lonesome Whistle  (Hank Williams)
TTITLE12=Born To Lose  (Ted Daffan)
TTITLE13=Cold, Cold Heart  (Hank Williams)
TTITLE14=Guess Things Happen That Way  (Jack Clement)
TTITLE15=Goodnight Irene  (Huddie Ledbetter/Arthur Lomax)
EXTD=(c)1999 RedX Entertainment Pty Limited/Charly\nupc 9325425000604
EXTT0=
EXTT1=
EXTT2=
EXTT3=
EXTT4=
EXTT5=
EXTT6=
EXTT7=
EXTT8=
EXTT9=
EXTT10=
EXTT11=
EXTT12=
EXTT13=
EXTT14=
EXTT15=
PLAYORDER=
